<svg xmlns="http://www.w3.org/2000/svg" xmlns:xlink="http://www.w3.org/1999/xlink" width="248.829" height="184.195" viewBox="0 0 248.829 184.195">
  <defs>
    <linearGradient id="linear-gradient" x1="-0.068" y1="1.25" x2="1.068" y2="-0.25" gradientUnits="objectBoundingBox">
      <stop offset="0" stop-color="#f0e9d6"/>
      <stop offset="0.096" stop-color="#efddf0"/>
      <stop offset="0.271" stop-color="#c6f6f0"/>
      <stop offset="0.468" stop-color="#f5d9de"/>
      <stop offset="0.633" stop-color="#fad6ce"/>
      <stop offset="0.829" stop-color="#dceef0"/>
      <stop offset="1" stop-color="#fae1dd"/>
    </linearGradient>
    <filter id="Z_M" x="22.078" y="30.908" width="224" height="121" filterUnits="userSpaceOnUse">
      <feOffset dy="3" input="SourceAlpha"/>
      <feGaussianBlur stdDeviation="3.5" result="blur"/>
      <feFlood flood-color="#cb9298" flood-opacity="0.349"/>
      <feComposite operator="in" in2="blur"/>
      <feComposite in="SourceGraphic"/>
    </filter>
    <filter id="Rectangle_534" x="83.34" y="52.207" width="35" height="79" filterUnits="userSpaceOnUse">
      <feOffset dy="3" input="SourceAlpha"/>
      <feGaussianBlur stdDeviation="3.5" result="blur-2"/>
      <feFlood flood-color="#cb9298" flood-opacity="0.349"/>
      <feComposite operator="in" in2="blur-2"/>
      <feComposite in="SourceGraphic"/>
    </filter>
    <filter id="Rectangle_534_copy_2" x="83.34" y="96.207" width="52" height="35" filterUnits="userSpaceOnUse">
      <feOffset dy="3" input="SourceAlpha"/>
      <feGaussianBlur stdDeviation="3.5" result="blur-3"/>
      <feFlood flood-color="#cb9298" flood-opacity="0.349"/>
      <feComposite operator="in" in2="blur-3"/>
      <feComposite in="SourceGraphic"/>
    </filter>
    <filter id="Rectangle_534_copy" x="120.34" y="52.207" width="35" height="79" filterUnits="userSpaceOnUse">
      <feOffset dy="3" input="SourceAlpha"/>
      <feGaussianBlur stdDeviation="3.5" result="blur-4"/>
      <feFlood flood-color="#cb9298" flood-opacity="0.349"/>
      <feComposite operator="in" in2="blur-4"/>
      <feComposite in="SourceGraphic"/>
    </filter>
    <linearGradient id="linear-gradient-2" x1="-0.231" x2="1.231" xlink:href="#linear-gradient"/>
    <linearGradient id="linear-gradient-3" x1="-0.216" x2="1.216" xlink:href="#linear-gradient"/>
    <linearGradient id="linear-gradient-4" x1="-0.186" x2="1.186" xlink:href="#linear-gradient"/>
  </defs>
  <g id="Logo" transform="translate(-835.16 -48.293)">
    <path id="Ellipse_1_copy" data-name="Ellipse 1 copy" d="M932.477,58.241c16.423-5.228,33.239-8.774,48.982-9.748a97.232,97.232,0,0,1,22.865,1.159,72.977,72.977,0,0,1,10.771,2.789q2.633.9,5.206,2.024,1.286.56,2.557,1.175t2.526,1.284c26.389,13.51,47.329,52.418,52.354,86.455,2.106,16.855-1.683,32.348-8.736,46.343a111.519,111.519,0,0,1-5.858,10.241,115.2,115.2,0,0,1-6.85,9.544,84.078,84.078,0,0,1-15.867,15.569c-11.457,8.139-24.35,9.643-38.537,4.178-14.189-5.054-29.774-16.248-46.425-24.863-33.163-20.121-59.044-12.888-83.495-18.407a61.829,61.829,0,0,1-16.71-5.862,43.188,43.188,0,0,1-7.084-4.718,35.293,35.293,0,0,1-5.822-6.071c-6.911-8.661-8.863-21.552-5.762-29.068,3.563-8.318,9.623-14.512,16-20.761q1.2-1.171,2.428-2.346t2.463-2.369c1.651-1.591,3.318-3.209,4.989-4.875,3.343-3.33,6.7-6.856,10.032-10.669,14.09-14.817,26.658-32.191,59.97-41Z" fill="url(#linear-gradient)"/>
    <g id="Zum_Text" data-name="Zum Text">
      <g id="Zum_Text-2" data-name="Zum Text">
        <g transform="matrix(1, 0, 0, 1, 835.16, 48.29)" filter="url(#Z_M)">
          <text id="Z_M-2" data-name="Z   M" transform="translate(32.58 117.41)" fill="#171721" font-size="82" font-family="Montserrat-Bold, Montserrat" font-weight="700"><tspan x="0" y="0" xml:space="preserve">Z   M</tspan></text>
        </g>
        <g transform="matrix(1, 0, 0, 1, 835.16, 48.29)" filter="url(#Rectangle_534)">
          <rect id="Rectangle_534-2" data-name="Rectangle 534" width="14" height="58" transform="translate(93.84 59.71)" fill="#171721"/>
        </g>
        <g transform="matrix(1, 0, 0, 1, 835.16, 48.29)" filter="url(#Rectangle_534_copy_2)">
          <rect id="Rectangle_534_copy_2-2" data-name="Rectangle 534 copy 2" width="31" height="14" transform="translate(93.84 103.71)" fill="#171721"/>
        </g>
        <g transform="matrix(1, 0, 0, 1, 835.16, 48.29)" filter="url(#Rectangle_534_copy)">
          <rect id="Rectangle_534_copy-2" data-name="Rectangle 534 copy" width="14" height="58" transform="translate(130.84 59.71)" fill="#171721"/>
        </g>
      </g>
      <path id="Color_Overlay" data-name="Color Overlay" d="M966,166V108h14v58Zm-37,0V108h14v44h17v14Zm122.418-.3-.082-34.439-16.892,28.372h-5.986L1011.648,132v33.7H999.184V108.3h10.988l21.484,35.671,21.156-35.671h10.906l.164,57.4Zm-180.563,0v-8.609l31.487-37.966H871.51V108.3h48.3v8.61L888.4,154.877h32.637V165.7Z" fill="#fff"/>
    </g>
    <path id="Ellipse_1_copy_2" data-name="Ellipse 1 copy 2" d="M1059.184,85.151a10.8,10.8,0,0,1,3.742.025q.209.043.416.1c.138.035.274.074.41.117.272.084.542.182.811.293a12.713,12.713,0,0,1,1.627.827,20.846,20.846,0,0,1,3.49,2.76q.935.892,1.94,2.007.5.558,1.019,1.175.258.308.52.631t.526.661a48.363,48.363,0,0,1,7.657,14.614,52.637,52.637,0,0,1,2.151,9.2c.22,1.562.366,3.125.44,4.666q.056,1.156.058,2.291t-.047,2.238a30.77,30.77,0,0,1-4.542,14.179,27.458,27.458,0,0,1-1.791,2.556,21.223,21.223,0,0,1-1.953,2.161,12.561,12.561,0,0,1-4.485,2.882,9.285,9.285,0,0,1-2.69.47,12.3,12.3,0,0,1-1.482-.045,15.472,15.472,0,0,1-1.575-.226,25.465,25.465,0,0,1-7.083-2.671c-5.063-2.615-10.361-6.916-15.143-11.046-9.159-9.125-15.749-10.932-20.47-16.871a19.554,19.554,0,0,1-2.759-4.846,22.609,22.609,0,0,1-1.448-5.751,18.222,18.222,0,0,1-.149-2.934c.015-.476.05-.943.1-1.391q.041-.337.1-.66t.128-.631a6.168,6.168,0,0,1,2.029-3.609c2.076-1.516,4.771-2.124,7.659-2.894l1.1-.287q.559-.146,1.132-.3c.764-.206,1.547-.426,2.353-.666,1.611-.478,3.311-1.037,5.123-1.707,7.132-2.345,16.017-6.778,21.083-7.308Z" opacity="0.702" fill="url(#linear-gradient-2)"/>
    <path id="Ellipse_1_copy_3" data-name="Ellipse 1 copy 3" d="M921.072,140.34a10.651,10.651,0,0,1,3.727-.276q.212.026.422.063t.418.084c.278.064.554.14.831.231a12.629,12.629,0,0,1,1.685.7,20.817,20.817,0,0,1,3.693,2.5q1,.824,2.09,1.866.544.522,1.107,1.1.282.29.568.594t.576.624a48.952,48.952,0,0,1,8.781,14.107,53.669,53.669,0,0,1,2.87,9.091c.342,1.556.612,3.119.808,4.665q.147,1.159.24,2.3t.131,2.258a31.4,31.4,0,0,1-3.4,14.648,27.8,27.8,0,0,1-1.58,2.719,21.459,21.459,0,0,1-1.773,2.333,12.56,12.56,0,0,1-4.236,3.263,9.2,9.2,0,0,1-2.641.689,12.076,12.076,0,0,1-1.479.074,15.28,15.28,0,0,1-1.586-.1,25.224,25.224,0,0,1-7.263-2.122c-5.247-2.227-10.863-6.135-15.951-9.911-9.841-8.456-16.545-9.747-21.716-15.351a19.777,19.777,0,0,1-3.131-4.661,23.042,23.042,0,0,1-1.9-5.676,18.65,18.65,0,0,1-.381-2.944c-.023-.481-.025-.954-.006-1.41q.014-.343.045-.673t.077-.646a6.264,6.264,0,0,1,1.733-3.8c1.947-1.694,4.581-2.523,7.394-3.53l1.076-.378q.545-.192,1.1-.393c.744-.269,1.507-.553,2.29-.859,1.566-.611,3.214-1.311,4.964-2.131,6.914-2.935,15.407-8.113,20.408-9.054Z" opacity="0.4" fill="url(#linear-gradient-3)"/>
    <path id="Ellipse_1_copy_4" data-name="Ellipse 1 copy 4" d="M880.46,197.883a3.614,3.614,0,0,1,.43-1.193c.025-.042.051-.082.078-.122s.055-.079.084-.118q.087-.115.186-.225a4.253,4.253,0,0,1,.45-.425,7.026,7.026,0,0,1,1.286-.8q.394-.2.867-.39.237-.1.495-.191.129-.048.263-.094c.089-.031.18-.062.273-.092a16.612,16.612,0,0,1,5.587-.772,18.206,18.206,0,0,1,3.215.367c.53.109,1.052.241,1.558.394q.38.115.747.244t.718.272a10.658,10.658,0,0,1,4.071,3.078,9.4,9.4,0,0,1,.624.866,7.276,7.276,0,0,1,.478.872,4.261,4.261,0,0,1,.426,1.764,3.126,3.126,0,0,1-.151.914,4.121,4.121,0,0,1-.182.468,5.166,5.166,0,0,1-.25.478,8.553,8.553,0,0,1-1.662,1.958,28.559,28.559,0,0,1-5.277,3.575c-3.982,1.882-5.309,3.781-7.761,4.61a6.726,6.726,0,0,1-1.878.326,7.833,7.833,0,0,1-2.022-.2,6.323,6.323,0,0,1-.965-.289c-.152-.059-.3-.124-.438-.193-.069-.034-.137-.07-.2-.107s-.129-.074-.19-.113a2.128,2.128,0,0,1-.938-1.062,7.693,7.693,0,0,1-.072-2.78c.01-.127.021-.255.032-.386s.021-.262.03-.4c.019-.268.037-.544.05-.828.027-.57.038-1.178.026-1.834.046-2.549-.385-5.9.014-7.578Z" opacity="0.4" fill="url(#linear-gradient-4)"/>
    <text id="EST.1994" transform="translate(994.824 184.309)" fill="#323249" font-size="16" font-family="Poppins-Medium, Poppins" font-weight="500"><tspan x="0" y="0">EST.1994</tspan></text>
  </g>
</svg>
